<svg xmlns="http://www.w3.org/2000/svg"  viewBox="0 0 128 128" width="64px" height="64px"><path fill="#fff" d="M114 74H34c-5.5 0-10 4.5-10 10l0 0c0 5.5 4.5 10 10 10h80 5c-5.5 0-10-4.5-10-10l0 0c0-5.5 4.5-10 10-10H114zM120 94H25c-8.3 0-15 6.7-15 15l0 0c0 8.3 6.7 15 15 15h95l0 0c-8.3 0-15-6.7-15-15l0 0C105 100.7 111.7 94 120 94L120 94zM114 44H29c-8.3 0-15 6.7-15 15l0 0c0 8.3 6.7 15 15 15h85l0 0c-8.3 0-15-6.7-15-15l0 0C99 50.7 105.7 44 114 44L114 44z"/><path fill="#444b54" d="M120,121H25c-6.6,0-12-5.4-12-12s5.4-12,12-12h16c1.7,0,3-1.3,3-3s-1.3-3-3-3h-7c-3.9,0-7-3.1-7-7s3.1-7,7-7h80c1.7,0,3-1.3,3-3s-1.3-3-3-3H29c-6.6,0-12-5.4-12-12s5.4-12,12-12h85c1.7,0,3-1.3,3-3s-1.3-3-3-3H29c-9.9,0-18,8.1-18,18c0,8.1,5.3,14.9,12.6,17.2C22,78.4,21,81.1,21,84c0,2.6,0.8,5.1,2.1,7.1C14.1,92,7,99.7,7,109c0,9.9,8.1,18,18,18h95c1.7,0,3-1.3,3-3S121.7,121,120,121z"/><path fill="#444b54" d="M74,94c0,1.7,1.3,3,3,3h43c1.7,0,3-1.3,3-3s-1.3-3-3-3H77C75.4,91,74,92.3,74,94z"/><g><path fill="#ff5576" d="M66,84H52c-1.7,0-3,1.3-3,3v20.2c0,1.6,1.8,2.6,3.1,1.6l5.7-4c0.7-0.5,1.6-0.5,2.3,0l5.7,4c1.3,0.9,3.1,0,3.1-1.6V87C69,85.3,67.7,84,66,84z"/></g></svg>